<?xml version="1.0" encoding="utf-8"?>
<!-- Generator: Adobe Illustrator 19.1.0, SVG Export Plug-In . SVG Version: 6.00 Build 0)  -->
<svg version="1.1" id="Layer_1" xmlns="http://www.w3.org/2000/svg" xmlns:xlink="http://www.w3.org/1999/xlink" x="0px" y="0px"
	 viewBox="0 0 38.5 33" style="enable-background:new 0 0 38.5 33;" xml:space="preserve">
<style type="text/css">
	.st0{fill:#C48030;}
</style>
<g id="Page-1_1_">
	<g>
		<path id="Shape_1_" class="st0" d="M37.1,27.8h-4.4c1.6-0.7,3-1.9,4-3.4c0.2-0.3,0.2-0.8,0.1-1.1c0-0.1-0.1-0.2-0.2-0.3
			c0.8-1.1,1.3-2.3,1.7-3.6c0.3-1.4,0.4-2.9,0.2-4.3c-0.1-0.6-0.5-1.1-1.1-1.3c-0.7-3.1-1.5-3.7-1.8-3.8c-0.4-0.2-0.8-0.3-1.2-0.1
			c-1.6,0.6-1.6,2-1.6,3.3c0,0.3,0,0.6,0,0.9c-0.6,0.1-1.1,0.6-1.3,1.2c-0.1,0.4-0.3,0.7-0.5,1.1c-0.3-0.1-0.5-0.3-0.8-0.4
			c-0.3-0.1-0.6-0.1-0.8,0l-3.3,1.3c-0.3,0.1-0.5,0.3-0.6,0.5c-0.2,0.3-0.3,0.6-0.4,0.9c-0.2-0.1-0.3-0.1-0.5-0.2V11
			c0-0.7-0.6-1.3-1.3-1.3H7.5c-0.7,0-1.3,0.6-1.3,1.3v0.9c-0.6-0.2-1.2-0.2-1.8-0.2c-4.6,0-4.6,5.1-4.6,6.8c0,3.7,1.8,6.2,4.6,6.2
			c0.7,0,1.5-0.1,2.2-0.3C7.1,25.7,8,27,9.3,27.8H3.9c-0.4,0-0.7,0.1-1,0.3s-0.5,0.6-0.5,1v1.3c0,1.5,1.4,2.6,3.3,2.6h29.7
			c1.8,0,3.3-1.1,3.3-2.6v-1.3c0-0.4-0.2-0.7-0.5-1S37.5,27.8,37.1,27.8L37.1,27.8z M34.8,11c0,0,0.1,0,0.2,0
			c0.1,0.1,0.6,0.5,1.1,2.6c-0.5,0-1.2,0.1-2.1,0.2c0-0.2,0-0.5,0-0.7C34.1,11.8,34.1,11.3,34.8,11z M32.6,15.6
			c0.1-0.2,0.2-0.3,0.4-0.4c0.1,0,0.2,0,0.4-0.1c1.1-0.2,2.3-0.3,3.4-0.3h0c0.2,0,0.3,0.1,0.3,0.3c0.1,1.3,0.1,2.6-0.2,3.9
			c-0.2,0.9-0.6,1.8-1.1,2.6c-1-1.8-2.3-3.4-4-4.7C32.3,16.6,32.5,16.1,32.6,15.6z M26.4,18.4l3.2-1.2c3.5,1.4,5.6,5.8,6,6.6
			c-0.4,0.6-1.5,2.2-4.5,3.3c-1,0.4-2.1,0.6-3.2,0.7h-0.9c-0.5,0-0.9-0.1-1.3-0.2c0-0.2-0.1-0.4-0.1-0.6
			C25.3,25.3,24.8,21.3,26.4,18.4L26.4,18.4z M22.5,26.8c0.6,0.3,1.3,0.6,2,0.8c0,0.1,0,0.2,0.1,0.2h-3.2
			C21.7,27.5,22.1,27.2,22.5,26.8L22.5,26.8z M24.2,26.1c-0.9-0.3-1.7-0.7-2.4-1.3c-1-0.8-1.8-1.8-2.4-2.9c-0.1-0.2,0-0.4,0.1-0.5
			c0,0,0,0,0,0c0.9-0.8,1.8-1.5,2.8-2.1c0.1-0.1,0.2-0.1,0.3-0.2c0.2-0.1,0.3-0.1,0.5,0c0.4,0.3,0.8,0.5,1.3,0.6
			C23.9,21.9,23.9,24,24.2,26.1L24.2,26.1z M18.6,17.3c0-0.1,0.1-0.1,0.1-0.1c0.7-0.3,1,0.1,1.8,1.1c0.1,0.2,0.3,0.4,0.4,0.6
			c-0.7,0.5-1.3,0.9-1.7,1.3C18.6,18.5,18.5,17.6,18.6,17.3L18.6,17.3z M6.2,20.3c-0.6,0.3-1.2,0.4-1.8,0.4c-0.5,0-0.8-1.2-0.8-2.3
			c0-2.9,0.4-2.9,0.8-2.9c0.7,0,1.3,0.2,1.8,0.6V20.3z M1.1,18.4c0-2.6,0.4-5.5,3.3-5.5c0.6,0,1.2,0.1,1.8,0.3v1.4
			c-0.6-0.3-1.2-0.4-1.8-0.4c-1.9,0-2.1,2-2.1,4.2c0,2.2,0.8,3.6,2.1,3.6c0.6,0,1.2-0.1,1.8-0.3V22c0,0.3,0,0.7,0.1,1
			c-0.6,0.2-1.3,0.3-1.9,0.3C2.3,23.3,1.1,21.5,1.1,18.4L1.1,18.4z M7.7,23.3c-0.1-0.4-0.2-0.9-0.2-1.3l0-11h15.5v6.9
			c-0.3,0-0.7,0-1,0.2c-0.2-0.2-0.4-0.4-0.5-0.7c-0.7-0.9-1.6-2.1-3.3-1.5c-0.4,0.2-0.7,0.5-0.9,0.9c-0.3,0.9,0,2.2,0.9,4.2
			c-0.3,0.5-0.3,1.2,0,1.7c0.7,1.2,1.6,2.3,2.7,3.2c0.1,0.1,0.2,0.2,0.3,0.2c-1.1,1.1-2.5,1.7-4.1,1.7h-3.9
			C10.6,27.8,8.3,26,7.7,23.3L7.7,23.3z M37.3,30.4c0,0.7-0.9,1.3-2,1.3H5.6c-1.1,0-2-0.6-2-1.3v-1.2c0.1,0,0.1-0.1,0.2-0.1h33.2
			c0.1,0,0.2,0,0.2,0.1V30.4z"/>
		<path class="st0" d="M14,7.1c0,0.4,0.3,0.6,0.6,0.6s0.6-0.3,0.6-0.6c0-0.5,0.2-0.9,0.5-1.2c1.1-1.1,1.1-2.9,0-4
			c-0.3-0.3-0.5-0.8-0.5-1.2C15.3,0.3,15,0,14.7,0S14,0.3,14,0.6c0,0.8,0.3,1.5,0.8,2c0.3,0.3,0.5,0.8,0.5,1.2s-0.2,0.9-0.5,1.2
			C14.3,5.6,14,6.4,14,7.1z"/>
		<path class="st0" d="M10.1,7.1c0,0.4,0.3,0.6,0.6,0.6s0.6-0.3,0.6-0.6c0-0.5,0.2-0.9,0.5-1.2c1.1-1.1,1.1-2.9,0-4
			c-0.3-0.3-0.5-0.8-0.5-1.2c0-0.4-0.3-0.6-0.6-0.6s-0.6,0.3-0.6,0.6c0,0.8,0.3,1.5,0.8,2c0.3,0.3,0.5,0.8,0.5,1.2s-0.2,0.9-0.5,1.2
			C10.4,5.6,10.1,6.4,10.1,7.1z"/>
		<path class="st0" d="M17.9,7.1c0,0.4,0.3,0.6,0.6,0.6c0.4,0,0.6-0.3,0.6-0.6c0-0.5,0.2-0.9,0.5-1.2c1.1-1.1,1.1-2.9,0-4
			c-0.3-0.3-0.5-0.8-0.5-1.2c0-0.4-0.3-0.6-0.6-0.6c-0.4,0-0.6,0.3-0.6,0.6c0,0.8,0.3,1.5,0.8,2C19,3,19.2,3.4,19.2,3.9
			S19,4.8,18.7,5.1C18.2,5.6,17.9,6.4,17.9,7.1z"/>
	</g>
</g>
</svg>
